/* XPM */
static char *item[] = {
/* columns rows colors chars-per-pixel */
"64 64 140 2 ",
"   c #27231A",
".  c #2C2819",
"X  c #3D261E",
"o  c #333019",
"O  c #3E331E",
"+  c #3A3819",
"@  c #3C391A",
"#  c #1E1822",
"$  c #201C25",
"%  c #2A262F",
"&  c #322023",
"*  c #382325",
"=  c #333038",
"-  c #35303B",
";  c #3C3E3E",
":  c #6A2A3C",
">  c #44421A",
",  c #46461A",
"<  c #48461E",
"1  c #4D4B1A",
"2  c #656C17",
"3  c #61621A",
"4  c #62641B",
"5  c #62631F",
"6  c #66681A",
"7  c #6B6E1A",
"8  c #6E711A",
"9  c #72751B",
"0  c #74761B",
"q  c #77721C",
"w  c #72751C",
"e  c #77781B",
"r  c #79791B",
"t  c #7A791C",
"y  c #7D7B1C",
"u  c #48462B",
"i  c #74493E",
"p  c #6D6327",
"a  c #7B612B",
"s  c #6F7020",
"d  c #717424",
"f  c #787B21",
"g  c #3A3340",
"h  c #443F41",
"j  c #58594E",
"k  c #514C50",
"l  c #7A4E42",
"z  c #6E5754",
"x  c #77654B",
"c  c #66635A",
"v  c #7E6F55",
"b  c #545961",
"n  c #705D6F",
"m  c #757265",
"M  c #9A2A38",
"N  c #9A3638",
"B  c #A4313B",
"V  c #A9303D",
"C  c #AC303D",
"Z  c #C1373E",
"A  c #C5383F",
"S  c #817D1E",
"D  c #BA5233",
"F  c #BC523D",
"G  c #926626",
"H  c #966E25",
"J  c #AA7C26",
"K  c #C85C35",
"L  c #CA6534",
"P  c #D66139",
"I  c #D07D32",
"U  c #EE783C",
"Y  c #A13342",
"T  c #D33C40",
"R  c #DD3F40",
"E  c #84594E",
"W  c #8A455A",
"Q  c #AE4A47",
"!  c #A4414F",
"~  c #817D4A",
"^  c #AD7544",
"/  c #866C68",
"(  c #9F726A",
")  c #E04140",
"_  c #E14141",
"`  c #E24640",
"'  c #E24840",
"]  c #D77D49",
"[  c #D37B4E",
"{  c #EE7C43",
"}  c #7F8226",
"|  c #8B8322",
" . c #9B8B28",
".. c #A28F24",
"X. c #A59025",
"o. c #AA9225",
"O. c #A19232",
"+. c #CEA635",
"@. c #D4A63C",
"#. c #8C8E45",
"$. c #96954E",
"%. c #98995B",
"&. c #AE8754",
"*. c #BC8F59",
"=. c #A69559",
"-. c #ABAC77",
";. c #EB9D48",
":. c #F69649",
">. c #C0A642",
",. c #CAAD4A",
"<. c #DBA742",
"1. c #DEA848",
"2. c #D4B65A",
"3. c #E3B958",
"4. c #F3BE53",
"5. c #C6956C",
"6. c #FFD16B",
"7. c #7A7581",
"8. c #7A7587",
"9. c #7E7F8B",
"0. c #856F83",
"q. c #8B7287",
"w. c #81868D",
"e. c #8D8990",
"r. c #AAAE89",
"t. c #C09385",
"y. c #DBB4B4",
"u. c #F2D980",
"i. c #FFE196",
"p. c #FFED94",
"a. c #FEF194",
"s. c #FFF599",
"d. c #CACBA9",
"f. c #FFEAA1",
"g. c #CBCBCD",
"h. c #EDE9D5",
"j. c #E5E9EA",
"k. c #E8EBED",
"l. c #FCFCF9",
"z. c white",
/* pixels */
"9 9 9 9 9 9 9 9 9 9 9 9 9 9 9 9 9 9 9 9 9 9 9 9 9 9 9 9 9 9 9 9 9 9 9 9 9 9 9 9 9 9 9 9 9 9 9 9 9 9 9 9 9 9 9 9 9 9 9 9 9 9 9 9 ",
"9 9 9 9 9 9 9 9 9 9 9 9 9 9 9 9 9 9 9 9 9 9 9 9 9 9 9 9 9 9 9 9 9 9 9 9 9 9 9 9 9 9 9 9 9 9 9 9 9 9 9 9 9 9 9 9 9 9 9 9 9 9 9 9 ",
"9 9 9 9 9 9 9 9 9 9 9 9 9 9 9 9 9 9 9 9 9 9 9 9 9 9 9 9 9 9 9 9 9 9 9 9 9 9 9 9 9 9 9 9 9 9 9 9 9 9 9 9 9 9 9 9 9 9 9 9 9 9 9 9 ",
"9 9 9 9 9 9 9 9 9 9 9 9 9 9 9 9 9 9 9 9 9 9 9 9 9 9 9 9 9 9 9 9 9 9 9 9 9 9 9 9 9 9 9 9 9 9 9 9 9 9 9 9 9 9 9 9 9 9 9 9 9 9 9 9 ",
"9 9 9 9 9 9 9 9 9 9 9 9 9 9 9 9 9 9 9 9 9 9 9 9 9 9 9 9 9 9 9 9 9 9 9 9 9 9 9 9 9 9 9 9 9 9 9 9 9 9 9 9 9 9 9 9 9 9 9 9 9 9 9 9 ",
"9 9 9 9 9 9 9 9 9 9 9 9 9 9 9 9 9 9 9 9 9 9 9 9 9 9 9 9 9 9 9 9 9 9 9 9 9 9 9 9 9 9 9 9 9 9 9 9 9 9 9 9 9 9 9 9 9 9 9 9 9 9 9 9 ",
"9 9 9 9 9 9 9 9 9 9 9 9 9 9 9 9 9 9 9 9 9 9 9 9 9 9 f f } } 9 9 9 9 9 9 9 9 9 9 9 9 9 9 9 9 9 9 9 9 9 9 9 9 9 9 9 9 9 9 9 9 9 9 ",
"9 9 9 9 9 9 9 9 9 9 9 9 9 9 9 9 9 9 9 9 9 9 9 9 9 9 f f } } 9 9 9 9 9 9 9 9 9 9 9 9 9 9 9 9 9 9 9 9 9 9 9 9 9 9 9 9 9 9 9 9 9 9 ",
"9 9 9 9 9 9 9 9 9 9 9 9 9 9 9 9 9 9 9 9 9 9 9 9 9 9 9 9 } } } } 9 9 9 9 9 9 9 9 9 9 9 9 9 9 9 9 9 9 9 9 9 9 9 9 9 9 9 9 9 9 9 9 ",
"9 9 9 9 9 9 9 9 9 9 9 9 9 9 9 9 9 9 9 9 9 9 9 9 9 9 9 9 } } } } 9 9 9 9 9 9 9 9 9 9 9 9 9 9 9 9 9 9 9 9 9 9 9 9 9 9 9 9 9 9 9 9 ",
"9 9 9 9 9 9 9 9 9 9 9 9 9 9 9 9 9 9 9 9 9 9 9 9 9 9 9 9 f f f f f f 9 9 9 9 9 9 9 9 9 9 9 9 9 9 9 9 9 9 9 9 9 9 9 9 9 9 9 9 9 9 ",
"9 9 9 9 9 9 9 9 9 9 9 9 9 9 9 9 9 9 9 9 9 9 9 9 9 9 9 9 f f f f f f 9 9 9 9 9 9 9 9 9 9 9 9 9 9 9 9 9 9 9 9 9 9 9 9 9 9 9 9 9 9 ",
"9 9 9 9 9 9 9 9 9 9 9 9 9 9 9 9 9 9 9 9 9 9 9 9 9 9 9 9 2 2 f f f f 2 2 f f f f } } } } 9 9 9 9 9 9 9 9 9 9 9 9 9 9 9 9 9 9 9 9 ",
"9 9 9 9 9 9 9 9 9 9 9 9 9 9 9 9 9 9 9 9 9 9 9 9 9 9 9 9 2 2 f f f f 2 2 f f f f } } } } 9 9 9 9 9 9 9 9 9 9 9 9 9 9 9 9 9 9 9 9 ",
"9 9 9 9 9 9 9 9 9 9 9 9 9 9 9 9 9 9 9 9 9 9 9 9 9 9 3 3 O O * * X X & & 5 5 s s 9 9 9 9 9 9 9 9 9 9 9 9 9 9 9 9 9 9 9 9 9 9 9 9 ",
"9 9 9 9 9 9 9 9 9 9 9 9 9 9 9 9 9 9 9 9 9 9 9 9 9 9 3 3 O O * * X X & & 5 5 s s 9 9 9 9 9 9 9 9 9 9 9 9 9 9 9 9 9 9 9 9 9 9 9 9 ",
"9 9 9 9 9 9 9 9 9 9 9 9 9 9 9 9 9 9 9 9 9 9 9 9 1 1 g.g.~ ~ [ [ ] ] ^ ^ 7.7.; ; 9 9 9 9 9 9 9 9 9 9 9 9 9 9 9 9 9 9 9 9 9 9 9 9 ",
"9 9 9 9 9 9 9 9 9 9 9 9 9 9 9 9 9 9 9 9 9 9 9 9 1 1 g.g.~ ~ [ [ ] ] ^ ^ 7.7.; ; 9 9 9 9 9 9 9 9 9 9 9 9 9 9 9 9 9 9 9 9 9 9 9 9 ",
"9 9 9 9 9 9 9 9 9 9 9 9 9 9 9 9 9 9 9 9 t t ,.,.y y % % r.r.t.t.( ( &.&.9.9.> > 9 9 9 9 9 9 9 9 9 9 9 9 9 9 9 9 9 9 9 9 9 9 9 9 ",
"9 9 9 9 9 9 9 9 9 9 9 9 9 9 9 9 9 9 9 9 t t ,.,.y y % % r.r.t.t.( ( &.&.9.9.> > 9 9 9 9 9 9 9 9 9 9 9 9 9 9 9 9 9 9 9 9 9 9 9 9 ",
"9 9 9 9 9 9 9 9 9 9 9 9 9 9 9 9 9 9 9 9 ,.,.a.a.@.@.4 4 b b l l i i z z $ $ 8 8 9 9 9 9 9 9 9 9 9 9 9 9 9 9 9 9 9 9 9 9 9 9 9 9 ",
"9 9 9 9 9 9 9 9 9 9 9 9 9 9 9 9 9 9 9 9 ,.,.a.a.@.@.4 4 b b l l i i z z $ $ 8 8 9 9 9 9 9 9 9 9 9 9 9 9 9 9 9 9 9 9 9 9 9 9 9 9 ",
"9 9 9 9 9 9 9 9 9 9 9 9 9 9 9 9 9 9 9 9 y y 3.3.S S 6 6 w.w.a a J J v v # # 9 9 9 9 9 9 9 9 9 9 9 9 9 9 9 9 9 9 9 9 9 9 9 9 9 9 ",
"9 9 9 9 9 9 9 9 9 9 9 9 9 9 9 9 9 9 9 9 y y 3.3.S S 6 6 w.w.a a J J v v # # 9 9 9 9 9 9 9 9 9 9 9 9 9 9 9 9 9 9 9 9 9 9 9 9 9 9 ",
"9 9 9 9 9 9 9 9 9 9 9 9 9 9 9 9 9 9 9 9 9 9 o.o.8 8 = = k.k.z.z.#.#.9 9 e.e.< < 9 9 9 9 9 9 9 9 9 9 9 9 9 9 9 9 9 9 9 9 9 9 9 9 ",
"9 9 9 9 9 9 9 9 9 9 9 9 9 9 9 9 9 9 9 9 9 9 o.o.8 8 = = k.k.z.z.#.#.9 9 e.e.< < 9 9 9 9 9 9 9 9 9 9 9 9 9 9 9 9 9 9 9 9 9 9 9 9 ",
"9 9 9 9 9 9 9 9 9 9 9 9 9 9 9 9 9 9 9 9 9 9 9 9 j j j.j.z.z.z.z.#.#.9 9 9 9 =.=.@ @ 9 9 9 9 9 9 9 9 9 9 9 9 } } 9 9 9 9 9 9 9 9 ",
"9 9 9 9 9 9 9 9 9 9 9 9 9 9 9 9 9 9 9 9 9 9 9 9 j j j.j.z.z.z.z.#.#.9 9 9 9 =.=.@ @ 9 9 9 9 9 9 9 9 9 9 9 9 } } 9 9 9 9 9 9 9 9 ",
"9 9 9 9 9 9 9 9 9 9 9 9 9 9 9 9 9 9 9 9 7 7 h h -.-.l.l.h.h.9 9 9 9 9 9 ....u.u.1.1.p p 9 9 9 9 9 9 9 9 } } 9 9 9 9 9 9 9 9 9 9 ",
"9 9 9 9 9 9 9 9 9 9 9 9 9 9 9 9 9 9 9 9 7 7 h h -.-.l.l.h.h.9 9 9 9 9 9 ....u.u.1.1.p p 9 9 9 9 9 9 9 9 } } 9 9 9 9 9 9 9 9 9 9 ",
"9 9 9 9 9 9 9 9 9 9 9 9 9 9 9 9 9 9 9 9 c c %.%.9 9 $.$.2.2.I I L L K K q q  . .w w m m + + 9 9 9 9 f f f f 9 9 9 9 9 9 9 9 9 9 ",
"9 9 9 9 9 9 9 9 9 9 9 9 9 9 9 9 9 9 9 9 c c %.%.9 9 $.$.2.2.I I L L K K q q  . .w w m m + + 9 9 9 9 f f f f 9 9 9 9 9 9 9 9 9 9 ",
"9 9 9 9 9 9 9 9 9 9 9 9 9 9 9 9 w w     d.d.w q H H { { u.u.:.:.' ' _ _ _ _ D D G G 9 9 8.8.3 3 9 9 f f f f 2 2 9 9 9 9 9 9 9 9 ",
"9 9 9 9 9 9 9 9 9 9 9 9 9 9 9 9 w w     d.d.w s H H { { u.u.:.:.' ' _ _ _ _ D D G G 9 9 8.8.3 3 9 9 f f f f 2 2 9 9 9 9 9 9 9 9 ",
"9 9 9 9 9 9 9 9 9 9 9 9 9 9 9 9 w w     y.y.P P ` ` ` ` U U ' ' _ _ _ _ _ _ _ _ _ _ N N 8.8.3 3 9 9 2 2 2 2 f f } } 9 9 9 9 9 9 ",
"9 9 9 9 9 9 9 9 9 9 9 9 9 9 9 9 9 9     y.y.P P ` ` ` ` U U ' ' _ _ _ _ _ _ _ _ _ _ N N 8.8.3 3 9 9 2 2 2 2 f f } } 9 9 9 9 9 9 ",
"9 9 9 9 9 9 9 9 9 9 9 9 9 9 9 9 9 9 1 1 / / Q K T T _ P ' ' ' ' _ _ _ _ _ _ T T Z Z W W k k 7 7 9 9 9 9 9 9 f f f f 9 9 9 9 9 9 ",
"9 9 9 9 9 9 9 9 9 9 9 9 9 9 9 9 9 9 1 1 / / K Q T T R R ' ' ' ' _ _ _ _ _ _ T T Z Z W W k k 7 7 9 9 9 9 9 9 f f f f 9 9 9 9 9 9 ",
"9 9 9 9 9 9 9 9 9 9 9 9 9 9 9 9 9 9 0 0 x x 6.6.C C Y C A A _ _ R R R R C C V V B B *.*.. . 9 9 9 9 9 9 9 9 2 2 2 2 9 9 9 9 9 9 ",
"9 9 9 9 9 9 9 9 9 9 9 9 9 9 9 9 9 9 0 0 x l 6.6.C C C C A A _ _ R R R R C C V V B B *.*.. . 9 9 9 9 9 9 9 9 2 2 2 2 9 9 9 9 9 9 ",
"9 9 9 9 9 9 9 9 9 9 9 9 9 9 9 9 9 9 X.X.i.i.s.s.;.;.V V V V V V V V V V V V Q Q 5.5.f.f.>.>.r r 9 9 9 9 9 9 9 9 9 9 9 9 9 9 9 9 ",
"9 9 9 9 9 9 9 9 9 9 9 9 9 9 9 9 9 9 ....i.i.s.s.;.;.V V V V V V V V V V V V Q Q 5.5.f.f.>.>.r r 9 9 9 9 9 9 9 9 9 9 9 9 9 9 9 9 ",
"9 9 9 9 9 9 9 9 9 9 9 9 } } } } 9 9 9 9 O.O.4.4.k k ! ! Y Y M M M M M M : : E E 3.3.p.p.<.<.y y 9 9 9 9 9 9 9 9 9 9 9 9 9 9 9 9 ",
"9 9 9 9 9 9 9 9 9 9 9 9 } } } } 9 9 9 9 O.O.4.4.k k ! ! Y Y M M M M M M : : E E 3.3.p.p.<.<.y y 9 9 9 9 9 9 9 9 9 9 9 9 9 9 9 9 ",
"9 9 9 9 9 9 9 9 9 9 9 9 9 9 } } f f f f e e | | d d - - n n q.q.0.0.0.0.g g u u e e +.+.w w 9 9 9 9 9 9 9 9 9 9 9 9 9 9 9 9 9 9 ",
"9 9 9 9 9 9 9 9 9 9 9 9 9 9 } } f f f f e e | | d d - - n n q.q.0.0.0.0.g g u u e e +.+.w w 9 9 9 9 9 9 9 9 9 9 9 9 9 9 9 9 9 9 ",
"9 9 9 9 9 9 9 9 f f } } } } 2 2 f f 2 2 f f f f 2 2 9 9 , , o o o o o o 8 8 9 9 w w w w w w 0 0 9 9 9 9 9 9 9 9 9 9 9 9 9 9 9 9 ",
"9 9 9 9 9 9 9 9 f f } } } } 2 2 f f 2 6 f f f f 2 2 9 9 , , o o o o o o 8 8 9 9 w w w w w w 0 0 9 9 9 9 9 9 9 9 9 9 9 9 9 9 9 9 ",
"9 9 9 9 9 9 9 9 9 9 } } f f f f 2 2 2 2 f f f f 2 2 9 9 9 9 9 9 9 9 9 9 9 9 9 9 9 9 9 9 9 9 9 9 9 9 9 9 9 9 9 9 9 9 9 9 9 9 9 9 ",
"9 9 9 9 9 9 9 9 9 9 } } f f f f 2 2 2 2 f f f f 2 2 9 9 9 9 9 9 9 9 9 9 9 9 9 9 9 9 9 9 9 9 9 9 9 9 9 9 9 9 9 9 9 9 9 9 9 9 9 9 ",
"9 9 9 9 9 9 9 9 9 9 2 2 f f f f 9 9 9 9 f f 2 2 9 9 9 9 9 9 9 9 9 9 9 9 9 9 9 9 9 9 9 9 9 9 9 9 9 9 9 9 9 9 9 9 9 9 9 9 9 9 9 9 ",
"9 9 9 9 9 9 9 9 9 9 2 2 f f f f 9 9 9 9 f f 2 2 9 9 9 9 9 9 9 9 9 9 9 9 9 9 9 9 9 9 9 9 9 9 9 9 9 9 9 9 9 9 9 9 9 9 9 9 9 9 9 9 ",
"9 9 9 9 9 9 9 9 9 9 9 9 2 2 f f 9 9 9 9 9 9 9 9 9 9 9 9 9 9 9 9 9 9 9 9 9 9 9 9 9 9 9 9 9 9 9 9 9 9 9 9 9 9 9 9 9 9 9 9 9 9 9 9 ",
"9 9 9 9 9 9 9 9 9 9 9 9 2 2 f f 9 9 9 9 9 9 9 9 9 9 9 9 9 9 9 9 9 9 9 9 9 9 9 9 9 9 9 9 9 9 9 9 9 9 9 9 9 9 9 9 9 9 9 9 9 9 9 9 ",
"9 9 9 9 9 9 9 9 9 9 9 9 9 9 9 9 9 9 9 9 9 9 9 9 9 9 9 9 9 9 9 9 9 9 9 9 9 9 9 9 9 9 9 9 9 9 9 9 9 9 9 9 9 9 9 9 9 9 9 9 9 9 9 9 ",
"9 9 9 9 9 9 9 9 9 9 9 9 9 9 9 9 9 9 9 9 9 9 9 9 9 9 9 9 9 9 9 9 9 9 9 9 9 9 9 9 9 9 9 9 9 9 9 9 9 9 9 9 9 9 9 9 9 9 9 9 9 9 9 9 ",
"9 9 9 9 9 9 9 9 9 9 9 9 9 9 9 9 9 9 9 9 9 9 9 9 9 9 9 9 9 9 9 9 9 9 9 9 9 9 9 9 9 9 9 9 9 9 9 9 9 9 9 9 9 9 9 9 9 9 9 9 9 9 9 9 ",
"9 9 9 9 9 9 9 9 9 9 9 9 9 9 9 9 9 9 9 9 9 9 9 9 9 9 9 9 9 9 9 9 9 9 9 9 9 9 9 9 9 9 9 9 9 9 9 9 9 9 9 9 9 9 9 9 9 9 9 9 9 9 9 9 ",
"9 9 9 9 9 9 9 9 9 9 9 9 9 9 9 9 9 9 9 9 9 9 9 9 9 9 9 9 9 9 9 9 9 9 9 9 9 9 9 9 9 9 9 9 9 9 9 9 9 9 9 9 9 9 9 9 9 9 9 9 9 9 9 9 ",
"9 9 9 9 9 9 9 9 9 9 9 9 9 9 9 9 9 9 9 9 9 9 9 9 9 9 9 9 9 9 9 9 9 9 9 9 9 9 9 9 9 9 9 9 9 9 9 9 9 9 9 9 9 9 9 9 9 9 9 9 9 9 9 9 ",
"9 9 9 9 9 9 9 9 9 9 9 9 9 9 9 9 9 9 9 9 9 9 9 9 9 9 9 9 9 9 9 9 9 9 9 9 9 9 9 9 9 9 9 9 9 9 9 9 9 9 9 9 9 9 9 9 9 9 9 9 9 9 9 9 ",
"9 9 9 9 9 9 9 9 9 9 9 9 9 9 9 9 9 9 9 9 9 9 9 9 9 9 9 9 9 9 9 9 9 9 9 9 9 9 9 9 9 9 9 9 9 9 9 9 9 9 9 9 9 9 9 9 9 9 9 9 9 9 9 9 ",
"9 9 9 9 9 9 9 9 9 9 9 9 9 9 9 9 9 9 9 9 9 9 9 9 9 9 9 9 9 9 9 9 9 9 9 9 9 9 9 9 9 9 9 9 9 9 9 9 9 9 9 9 9 9 9 9 9 9 9 9 9 9 9 9 ",
"9 9 9 9 9 9 9 9 9 9 9 9 9 9 9 9 9 9 9 9 9 9 9 9 9 9 9 9 9 9 9 9 9 9 9 9 9 9 9 9 9 9 9 9 9 9 9 9 9 9 9 9 9 9 9 9 9 9 9 9 9 9 9 9 "
};
