/* XPM */
static char *door[] = {
/* columns rows colors chars-per-pixel */
"64 64 119 2 ",
"   c #1D3D3B",
".  c #1D3D3C",
"X  c #1E403F",
"o  c #636917",
"O  c #686F16",
"+  c #666F18",
"@  c #6F761F",
"#  c #72751B",
"$  c #70751F",
"%  c #5E7330",
"&  c #606C20",
"*  c #6F7720",
"=  c #6C7626",
"-  c #6C7826",
";  c #6C7827",
":  c #69772D",
">  c #6C7929",
",  c #6A792F",
"<  c #6A7A2F",
"1  c #757B25",
"2  c #787B21",
"3  c #667833",
"4  c #677C33",
"5  c #667C35",
"6  c #697A30",
"7  c #6D7C33",
"8  c #63783A",
"9  c #647D3B",
"0  c #647E3C",
"q  c #1E4140",
"w  c #204647",
"e  c #214849",
"r  c #234C4D",
"t  c #244F50",
"y  c #255252",
"u  c #275755",
"i  c #285A57",
"p  c #295B58",
"a  c #2B5C5F",
"s  c #2C5D61",
"d  c #2D5E64",
"f  c #2F5F68",
"g  c #2F6069",
"h  c #30616A",
"j  c #30626B",
"k  c #32666F",
"l  c #326670",
"z  c #336770",
"x  c #336872",
"c  c #346973",
"v  c #356B74",
"b  c #356C75",
"n  c #376F79",
"m  c #377079",
"M  c #39727B",
"N  c #39737C",
"B  c #3B777E",
"V  c #5F7942",
"C  c #5F7A42",
"Z  c #507B5B",
"A  c #607C42",
"S  c #4D7B61",
"D  c #A2783C",
"F  c #7F8124",
"G  c #6A813C",
"H  c #758434",
"J  c #5D834D",
"K  c #5B8252",
"L  c #5B8453",
"P  c #5A8556",
"I  c #5D8656",
"U  c #55815D",
"Y  c #55865F",
"T  c #59865A",
"R  c #58875E",
"E  c #628042",
"W  c #608247",
"Q  c #668446",
"!  c #61834C",
"~  c #528263",
"^  c #568861",
"/  c #548A66",
"(  c #528868",
")  c #538A69",
"_  c #528B6B",
"`  c #528B6D",
"'  c #548D6D",
"]  c #4C8371",
"[  c #4D8772",
"{  c #4D8675",
"}  c #4C8775",
"|  c #4F8D72",
" . c #46847E",
".. c #4D8F79",
"X. c #4A907F",
"o. c #4A917F",
"O. c #6F8665",
"+. c #7F9B67",
"@. c #A2814F",
"#. c #B1A14A",
"$. c #C6A740",
"%. c #3E7B81",
"&. c #3F7D83",
"*. c #407E83",
"=. c #458480",
"-. c #428386",
";. c #428486",
":. c #438586",
">. c #468982",
",. c #448986",
"<. c #448A86",
"1. c #458C86",
"2. c #479186",
"3. c #499282",
"4. c #489285",
"5. c #489387",
"6. c #8BA59C",
"7. c #9CA8AD",
"8. c #B3B0A9",
/* pixels */
"# # # # # # # # # # # # # # # # # # # # # # # # # # # # # # # # # # # # # # # # # # # # # # # # # # # # # # # # # # # # # # # # ",
"# # # # # # # # # # # # # # # # # # # # # # # # # # # # # # # # # # # # # # # # # # # # # # # # # # # # # # # # # # # # # # # # ",
"# # # # # # # # # # # # # # # # # # # # # # # # # # # # # # # # # # # # # # # # # # # # # # # # # # # # # # # # # # # # # # # # ",
"# # # # # # # # # # # # # # # # # # # # # # # # # # # # # # # # # # # # # # # # # # # # # # # # # # # # # # # # # # # # # # # # ",
"# # # # # # # # # # # # # # # # # # # # @ @ W W # # 9 9 T T T T P P # # # # # # # # # # # # # # # # # # # # # # # # # # # # # # ",
"# # # # # # # # # # # # # # # # # # # # @ @ W W # # 9 9 T T T T P P # # # # # # # # # # # # # # # # # # # # # # # # # # # # # # ",
"# # # # # # # # # # # # # # # # # # # # # # , , 9 9 X.X.,.,.;.;.3.3._ _ W W # # # # # # R R $ $ # # # # # # # # # # # # # # # # ",
"# # # # # # # # # # # # # # # # # # # # # # , , 9 9 X.X.,.,.;.;.3.3._ _ W W # # # # # # R R $ $ # # # # # # # # # # # # # # # # ",
"# # # # # # # # # # # # # # L L X.X.- - # # 4 4 3.3.;.;.-.-.-.-.;.;.,.,.3.3.....5 5 * * 4.4./ / # # # # # # # # # # # # # # # # ",
"# # # # # # # # # # # # # # L L X.X.- - # # 4 4 3.3.;.;.-.-.-.-.;.;.,.,.3.3.....5 5 * * 4.4./ / # # # # # # # # # # # # # # # # ",
"# # # # # # # # # # # # E E >.>.3 3 # # - - 4.4.,.,.-.-.N N n n m m ;.;.-.-.,.,.2.2.= = = = =.=.T T $ $ # # $ $ # # # # # # # # ",
"# # # # # # # # # # # # E E >.>.3 3 # # - - 4.4.,.,.-.-.N N n n m m ;.;.-.-.,.,.2.2.= = = = =.=.T T $ $ # # $ $ # # # # # # # # ",
"# # # # # # # # # # $ $ I I ! ! @ @ 4 4 4.4.,.,.*.*.M M f f v v n n M M *.*.;.;.,.,.4.4.4 4 6 6 { } E E # # 6 6 # # # # # # # # ",
"# # # # # # # # # # $ $ I I ! ! @ @ 4 4 4.4.,.,.*.*.M M f f v v n n M M *.*.;.;.,.,.4.4.4 4 6 6 } } E E # # 6 6 # # # # # # # # ",
"# # # # # # 2 2 # # , , { { % % G G X.X.,.,.-.-.N N k k f f f f k k c c n n M M *.*.,.,.X.X.0 0 W W C A # # L L # # # # # # # # ",
"# # # # # # 2 2 # # , , { { % % G G X.X.,.,.-.-.N N k k f f f f k k c c n n M M *.*.,.,.X.X.0 0 W W A A # # L L # # # # # # # # ",
"# # # # # # # # F F 7 7 Z Z 9 9 X.X.,.,.-.-.N N v v j j f f s s s s g g z z v v N N -.-.,.,.) ) , , L K > > # # # # # # # # # # ",
"# # # # # # # # F F 7 7 Z Z 9 9 X.X.,.,.-.-.N N v v j j f f s s s s j f z z v v N N -.-.,.,.) _ , , K K > > # # # # # # # # # # ",
"# # # # # # # # 2 2 1 1 #.#.+.+.>.>.-.-.M M b b j j d d s s p p s s s s f f j j v v -.-.;.;.3.3.W W , , @ @ # # # # # # # # # # ",
"# # # # # # # # 2 2 1 1 #.#.+.+.>.>.-.-.M M b b j j d d s s p p a a s s f f j j v v ;.;.;.;.3.3.W W , , @ @ # # # # # # # # # # ",
"# # # # # # # # ....$.$.D D O.O.;.;.-.-.m m v v g g s s p p p p i p p p a a d d v v n n ;.;.2.5.K K # # # # # # # # # # # # # # ",
"# # # # # # # # ....$.$.D D O.O.;.;.-.-.m m v v g g s s p p p p p p p p a a d d v v n n ;.;.4.5.K K # # # # # # # # # # # # # # ",
"# # # # # # # # ....o o $.$.+.+.;.;.-.-.b b f f s s p p p p r r r r p p s s f f v v n n ;.;.-.-.P P $ $ $ $ # # # # # # # # # # ",
"# # # # # # # # ....o o $.$.+.+.;.;.-.-.b b f f s s p p p p r r r r p p s s f f v v n n ;.;.;.-.P P $ $ $ $ # # # # # # # # # # ",
"# # # # # # # # $ $ , , & & S S ;.;.M M b b f f s s u u r r . . e e t t s s f f x x m m &.&.<.<.I I F F ' ' @ @ # # # # 2 2 2 2 ",
"# # # # # # # # $ $ , , & & S S ;.;.M M b b f f s s u u r r . . e e t t s s f f x x m m &.&.<.<.I I F F ' ' @ @ # # # # 2 2 2 2 ",
"F F 2 2 # # # # J J [ [ E E ,.,.-.-.M M z z d d p p y y w w     . . t t p p d d g g b b m m ;.;.' ' H H ' ' 1 1 # # F F F F # # ",
"F F 2 2 # # # # J J [ [ E E ,.,.-.-.M M z z d d p p y y w w     . . t t p p d d g g b b m m ;.;.' ' H H ' ' 1 1 # # F F F F # # ",
"F F 2 2 2 2 # # 3.3.8 8 A A ;.;.N N n n f f d d u u r r q q     e e t t u u s s s s m m m m ;.;.1.1.C C G G + + 2 2 2 2 O O # # ",
"F F 2 2 2 2 # # 3.3.8 8 A A ;.;.N N n n f f d d u u r r q q     q q t t u u s s s s m m m m ;.;.1.1.C C G G + + 2 2 2 2 O O # # ",
"O O 2 2 2 2 # #  . .> > { { -.-.N N M M f f d d u u r r X X . . q . r r y y s s g g m m m m ;.;.1.,.Q Q O O O O 2 2 7.7.7.7.# # ",
"O O 2 2 2 2 # #  . .> > { { -.-.N N M M f f d d u u r r X X . . . . r r y y s s g g m m m m ;.;.<.,.Q Q O O O O 2 2 7.7.7.7.# # ",
"# # O O O O | | @ @ , , ,.,.;.;.N N n n f f d d p p y y X . . . . . r r y y s s f f v v N N -.-.<.<.6.6.8.8.$ # # 2 @.@.7.7.# # ",
"# # O O O O | | @ @ , , ,.,.-.;.N N n n f f d s p i y y w w . . . . r t y y s s f f v v N N -.-.<.<.6.6.8.8.# # 2 2 @.@.7.7.# # ",
"# # # # # # # # # # # # C C ;.;.N N n n f f s s p p y y . . . . . . y y p p s s v v n n n n -.-.>.>.O.O.@.@.8.8.# # + o o o # # ",
"# # # # # # # # # # # # C C ;.;.N N n n f f s s p p y y . w . . . . y y p p s s v v n n n n -.-.>.>.O.O.@.@.8.8.# # o o o o # # ",
"# # # # # # # # 3 3 # # E E ,.,.N N n n n n a s a a y y t t r r q . r r p p s s v v n n N N -.-.,.1.6.6.8.8.% % # # # # # # # # ",
"# # # # # # # # 3 3 # # E E ,.,.N N n n n n s s a a y y t t r r q q r r p p s s v v n n N N -.-.1.1.6.6.8.8.% % # # # # # # # # ",
"# # # # # # # # >.>.E E A A <.<.%.%.n n n n f f s s i i y y r r y y y y a s d d c c n n %.%.-.-.5.5.A A o o I I # # # # # # # # ",
"# # # # # # # # >.>.E E A C <.<.%.*.n n n n f j s s i i y t r r y y y t a s d d c v n n %.%.-.-.5.5.A A o o I I # # # # # # # # ",
"# # # # # # # # A A 8 8 A A ,.1.-.-.%.%.n n f f s s p p p p u u y y i i s s f g M n %.%.-.-.-.-.) ) > > # # # # # # # # # # # # ",
"# # # # # # # # A A 8 8 A A ,.,.-.-.%.%.n n f f s s p p p p u u y y i i s s f g n n %.%.-.-.-.-.) ) > > # # # # # # # # # # # # ",
"# # # # # # # # # # # # 1 1 Y Y -.-.-.-.n n z z f f p p p p p p p p p p f f z z %.%.-.-.-.-.4.4.I I # # Y R * * # # # # # # # # ",
"# # # # # # # # # # # # 1 1 Y Y -.-.-.-.n n z z f f p p p p p p p p p p f f z z %.%.-.-.-.-.4.4.I I # # R R * * # # # # # # # # ",
"# # # # # # # # $ $ # # $ @ K P 2.2.-.-.*.*.n n l l f f j f i i f f f f f f z z %.%.;.;.5.2.) ) $ $ T T 3 3 1 @ # # # # # # # # ",
"# # # # # # # # $ $ # # $ @ L K 5.2.-.-.*.*.n n z z f f j j i p f f f f f f z z %.%.;.;.4.4.) ) $ $ T T 3 3 @ @ # # # # # # # # ",
"# # # # # # # # * * ) ) @ * * * ' ' -.-.%.*.n n v v j f s d j f f f z l n n n n &.&.<.1.` ` * * $ $ ^ ^ 3 3 # # # # # # # # # # ",
"# # # # # # # # * * ) ) * * * 1 ' ' -.-.*.*.n n v v j j d d j f f f z z n n n n &.&.1.1.` ` * * $ $ ^ ^ 3 3 # # # # # # # # # # ",
"# # # # # # # # # # , < R R # # ) ) 4.5.;.-.N N n n n n k k j j n n n n B B -.-.-.-.4.4.# # # # W W [ ] : : # # # # # # # # # # ",
"# # # # # # # # # # , , R R # # ) ) 5.5.-.-.N N n n n n k k f j n n n n B B -.;.-.:.4.4.# # # $ W W ] ] : , # # # # # # # # # # ",
"# # # # # # # # # # , , R R # # W W X.X.-.-.*.*.N N N M n n n n n n B B %.%.:.:.,.,.4.4.# # - - ~ ~ A V # # # # # # # # # # # # ",
"# # # # # # # # # # , , R R # # W W X.X.-.-.*.*.N N M M n n n n n n B B %.%.:.:.,.,.4.4.# # - - ~ S V V # # # # # # # # # # # # ",
"# # # # # # # # # # , , U U # # # # 9 9 ,.,.-.-.-.-.N N M M n n M M -.-.:.:.,.,.L L A A # # 6 4 ) ( = - # # # # # # # # # # # # ",
"# # # # # # # # # # , , U U # # # # 9 9 ,.,.-.-.-.-.N N M M n n M M -.-.:.:.,.,.L L A A # # 4 4 ( ( > - # # # # # # # # # # # # ",
"# # # # # # # # # # 4 4  . .G G # # $ $ 4.4.-.-.-.-.-.-.M M *.&.*.*.-.-.,.,.4.4.4 5 $ $ # # $ $ = - $ $ # # # # # # # # # # # # ",
"# # # # # # # # # # 4 4  . .G G # # $ $ 4.4.-.-.-.-.-.-.M M &.&.*.*.-.-.,.,.4.4.4 6 $ $ # # $ $ - > $ $ # # # # # # # # # # # # ",
"# # # # # # # # # # # # % % 1.1.4 4 # # 1 1 4.4.,.,.-.-.-.-.-.-.4.4.) ) $ $ # # $ $ # # # # # # # # # # # # # # # # # # # # # # ",
"# # # # # # # # # # # # % % 1.1.4 4 # # 1 1 4.4.,.,.-.-.-.-.-.-.4.4.) ) $ $ # # $ $ # # # # # # # # # # # # # # # # # # # # # # ",
"# # # # # # # # # # # # $ $ * * # # # # # # # # 9 9 ` ` ` ` ` ` # # # # $ $ W W : : # # # # # # # # # # # # # # # # # # # # # # ",
"# # # # # # # # # # # # $ $ * * # # # # # # # # 9 9 ` ` ` ` ` ` # # # # $ $ W W : : # # # # # # # # # # # # # # # # # # # # # # ",
"# # # # # # # # # # # # # # # # # # # # # # # # $ $ # # # # # # # # # # # # # # # # # # # # # # # # # # # # # # # # # # # # # # ",
"# # # # # # # # # # # # # # # # # # # # # # # # $ $ # # # # # # # # # # # # # # # # # # # # # # # # # # # # # # # # # # # # # # ",
"# # # # # # # # # # # # # # # # # # # # # # # # # # # # # # # # # # # # # # # # # # # # # # # # # # # # # # # # # # # # # # # # ",
"# # # # # # # # # # # # # # # # # # # # # # # # # # # # # # # # # # # # # # # # # # # # # # # # # # # # # # # # # # # # # # # # "
};
