/* XPM */
static char *result[] = {
/* columns rows colors chars-per-pixel */
"32 32 199 2 ",
"   c #010117",
".  c #02011C",
"X  c #0B011A",
"o  c #160415",
"O  c #1B0416",
"+  c #1B0A17",
"@  c #12021A",
"#  c #1C0519",
"$  c #1C0A1B",
"%  c #130818",
"&  c #1F141B",
"*  c #23060F",
"=  c #360B0A",
"-  c #390B0A",
";  c #210315",
":  c #240A16",
">  c #290E16",
",  c #230A1B",
"<  c #20071F",
"1  c #3D0E1C",
"2  c #291017",
"3  c #24101B",
"4  c #2B121A",
"5  c #2C1C1B",
"6  c #321215",
"7  c #34141B",
"8  c #3A141C",
"9  c #33191B",
"0  c #3B191B",
"q  c #35241C",
"w  c #3C231F",
"e  c #240A22",
"r  c #2B0D24",
"t  c #200720",
"y  c #2C1324",
"u  c #2B1825",
"i  c #321126",
"p  c #362523",
"a  c #45120C",
"s  c #571409",
"d  c #531A0B",
"f  c #5B1C0A",
"g  c #42091D",
"h  c #441615",
"j  c #4B1A12",
"k  c #421E1E",
"l  c #47191C",
"z  c #531D13",
"x  c #651E0E",
"c  c #6D0B10",
"v  c #700E13",
"b  c #741C13",
"n  c #5D200B",
"m  c #56260E",
"M  c #45201D",
"N  c #4B211B",
"B  c #572213",
"V  c #5C2312",
"C  c #5B261D",
"Z  c #5D2A1B",
"A  c #49341F",
"S  c #593E17",
"D  c #5A3B17",
"F  c #64240D",
"G  c #69260E",
"H  c #642B0F",
"J  c #6A290F",
"K  c #642612",
"L  c #6D2610",
"P  c #632B11",
"I  c #6C2A12",
"U  c #612C1A",
"Y  c #6C2C18",
"T  c #732C12",
"R  c #7A2C12",
"E  c #732A14",
"W  c #673211",
"Q  c #6C3612",
"!  c #6D3B14",
"~  c #6D321B",
"^  c #623C12",
"/  c #733214",
"(  c #7C3415",
")  c #72351E",
"_  c #7C3419",
"`  c #77391F",
"'  c #7E3C1C",
"]  c #763D17",
"[  c #520F25",
"{  c #491222",
"}  c #451E21",
"|  c #412B23",
" . c #4D2223",
".. c #592D22",
"X. c #4E3930",
"o. c #473629",
"O. c #682F22",
"+. c #5E4419",
"@. c #6C4515",
"#. c #664D1A",
"$. c #7B441B",
"%. c #7A4A18",
"&. c #68511E",
"*. c #725219",
"=. c #7A531A",
"-. c #77591C",
";. c #7A5A1C",
":. c #7E611E",
">. c #644F23",
",. c #6E5723",
"<. c #6C5822",
"1. c #604B32",
"2. c #7D6837",
"3. c #8B1319",
"4. c #A6171D",
"5. c #A9191F",
"6. c #832315",
"7. c #842E15",
"8. c #98271B",
"9. c #833416",
"0. c #893517",
"q. c #833A17",
"w. c #8B3917",
"e. c #82351A",
"r. c #8A3518",
"t. c #843C1A",
"y. c #8C3C18",
"u. c #95341A",
"i. c #943D19",
"p. c #9D3C1E",
"a. c #9B331C",
"s. c #AA2A1E",
"d. c #A5251C",
"f. c #A3341D",
"g. c #BD1C23",
"h. c #823F22",
"j. c #B72C22",
"k. c #B82D24",
"l. c #A53A20",
"z. c #C11E24",
"x. c #C52828",
"c. c #D4342F",
"v. c #DC2831",
"b. c #D0362F",
"n. c #F12F3B",
"m. c #F1303B",
"M. c #85431B",
"N. c #8C431B",
"B. c #834C1A",
"V. c #8F4B1D",
"C. c #91461D",
"Z. c #99441C",
"A. c #934B1E",
"S. c #9B4E1F",
"D. c #8B531C",
"F. c #84571D",
"G. c #92571F",
"H. c #A54B1E",
"J. c #81621E",
"K. c #84681F",
"L. c #8C4321",
"P. c #874822",
"I. c #984B22",
"U. c #945C21",
"Y. c #AB4125",
"T. c #A64B21",
"R. c #B44A23",
"E. c #BB4A24",
"W. c #AF5624",
"Q. c #A95425",
"!. c #BB5D25",
"~. c #B25523",
"^. c #856521",
"/. c #8C6B23",
"(. c #836C24",
"). c #946723",
"_. c #8D7324",
"`. c #837129",
"'. c #8A792E",
"]. c #947F29",
"[. c #9C7C2D",
"{. c #977427",
"}. c #9D6E34",
"|. c #8C7737",
" X c #A86B27",
".X c #BE6127",
"XX c #A9722F",
"oX c #A37935",
"OX c #C66429",
"+X c #D0682A",
"@X c #917B42",
"#X c #9B822C",
"$X c #B4943F",
"%X c #A38439",
"&X c #AF9647",
"*X c #B39B40",
"=X c #BFA444",
"-X c #C1AD4C",
";X c None",
/* pixels */
";X;X;X;X;X;X. . X X . . X X . .   . . % . . X X . . ;X;X;X;X;X;X",
";X;X;X;X;X;X: : @ % , 3 @ $ & 5 p 5 $ % 4 3 $ @ 4 4 ;X;X;X;X;X;X",
";X;X;X@ X > j B t y N C t 9 A >.2.1.p t ) ..i e ) O.0 . @ ;X;X;X",
";X;X@ @ . 7 K e.r } ~ M.r p ,.#X=X@XX.y W.L. .r W.L.M . @ # ;X;X",
";X> h l M Z ( 0.< 7 P ' r | -.].=X|.o.3 T.P. .i T.Z.` ..O...7 ;X",
". 6 Y i.I.C.y.E + ; a f e w +.J.#X<.q @ _ Y l y E Z.~.OX+XI.k . ",
". 6 I i.C.C.y._ , 7 B W t 0 +.J.'.&.q $ t.Y 0 e _ Z.H.~.!.t.0 . ",
". 6 L i.w.w.w._ 4 i U ' $ 9 +.J.(.#.q r L.~ 0 $ t.C.Z.i.H./ 7 . ",
". 6 K u.0.0.0.R i } ' N.+ 5 +.;.=.+.0 i N.~ 9 + $.N.0.7.0.K 6 . ",
". > z E L J J J z z I T j d m ! Q P B z Q I d j I R E L T d > . ",
". : a f d d d d d d d d d d d d d d d d d d d d d d d d d h ; X ",
";X; = - - - - = = = = = = - = - = = = = = = - - = = = = - = ; ;X",
";X;X# @ o o o o o o o o o o o o o o o o o o o o o o # o o @ ;X;X",
";X;XX X + : 2 7 9 7 1 g [ { 0 9 k l 1 1 [ { 8 2 2 7 7 4 @ X ;X;X",
";X;X@ # d L ( i.V.p.s.z.n.c.l.A.!.E.j.g.m.c.l.q.w.i.C.M.: @ ;X;X",
";X;X@ ; d G R 9.N.i.8.5.v.b.Y.S..XR.s.4.v.x.f.0.( 0.i.h.: @ ;X;X",
";X;X@ O d F G J w.r.3.3.x.j.Z.S..XR.8.3.x.j.a.q.J R w.t., @ ;X;X",
";X;X@ O d n n F 0.7.E v 4.d.p.S..XT.R c 4.d.8.9.F G ( 9., X ;X;X",
";X;XX O d F L 7.0.R L x u.p.Z.S.Q.T.Y.p.3.R 7.0.R R w.' , @ ;X;X",
";X;Xo O d G 9.N.i.0.J F y.C.V.V.N.S.W.W.G J ( C.w.N.A.N.: @ ;X;X",
";X;X@ # m ! %.G.XXU./ d / ( ( ( / q.N.y.F H %.U.G.).XX}., @ ;X;X",
";X;X@ , D *.K.[.=XoX$.s F G H G F G J G f Q F._./.[.$X&Xu @ ;X;X",
";X;X@ + +.-./.[.=XoX$.d F G G G G F H G f Q :.#X/.[.$X&Xu @ ;X;X",
";X;X@ , &.=.M.P.%X/.! x 9.w.N.C.A.C.A.N.x W *.F.w.G.{.'.3 @ ;X;X",
";X;X@ $ #.=.B.M._.;.Q f ( 0.M.M.M.y.M.( n H @.;.q.D./.`.e X ;X;X",
";X;X@ < +.*.%.B.K.=.W f J I T T T / / Q f H @.*.%.F._.`.3 % ;X;X",
";X;X@ + S @.*.-.-.@.P s f f f n n f n n f n ^ #.*.:._.:.3 X ;X;X",
";X> j C ] %.B.D.D.B.M.( R / ( ( ( ( ( ( R ( $.B.D.U. X X$.O.0 ;X",
". 6 K i.q.0.w.w.C.A.A.V.w.y.N.A.V.A.C.V.w.y.V.C.V.I.W.!.OXh.k . ",
". : h K n V V V Z U Z P V V U Z Z P U Z V V Z U U ~ ) ' h.O.4 X ",
"X # , 2 : > > > 2 4 3 4 > 2 2 4 4 4 4 2 > 2 3 4 4 4 7 9 9 4 # . ",
"@ X . . . . . . . . . . . . . . . . . . . . . . . . . . . . X @ "
};
