/* XPM */
static char *player_front[] = {
/* columns rows colors chars-per-pixel */
"64 64 182 2 ",
"   c #3C2E31",
".  c #363731",
"X  c #323234",
"o  c #353537",
"O  c #3D3134",
"+  c #3F3135",
"@  c #3A3A31",
"#  c #3C3C32",
"$  c #3C3D36",
"%  c #3F3F37",
"&  c #373739",
"*  c #39393B",
"=  c #3B3B3D",
"-  c #3C3C3E",
";  c #4D3706",
":  c #432F27",
">  c #4C322A",
",  c #473E2D",
"<  c #403437",
"1  c #44383C",
"2  c #453B3F",
"3  c #483C3F",
"4  c #5F540D",
"5  c #584F1F",
"6  c #5D561E",
"7  c #614A03",
"8  c #725A00",
"9  c #765E00",
"0  c #705905",
"q  c #625A10",
"w  c #5D621A",
"e  c #636917",
"r  c #686F16",
"t  c #66691E",
"y  c #6A6C1D",
"u  c #72751B",
"i  c #72751C",
"p  c #4A4D25",
"a  c #46472B",
"s  c #4D452E",
"d  c #5A4926",
"f  c #5F4C2D",
"g  c #525327",
"h  c #5E5423",
"j  c #595B23",
"k  c #5D5F22",
"l  c #585A25",
"z  c #585927",
"x  c #515329",
"c  c #51522C",
"v  c #4E4E35",
"b  c #41423C",
"n  c #494A38",
"m  c #5E423D",
"M  c #58593B",
"N  c #644038",
"B  c #6A5538",
"V  c #656020",
"C  c #737521",
"Z  c #787B21",
"A  c #7C7D23",
"S  c #77603E",
"D  c #797B32",
"F  c #3E3E40",
"G  c #404042",
"H  c #414143",
"J  c #434345",
"K  c #4A4946",
"L  c #464648",
"P  c #474749",
"I  c #49494B",
"U  c #4B4B4D",
"Y  c #5C4C46",
"T  c #5E5740",
"R  c #4F4F51",
"E  c #515153",
"W  c #535356",
"Q  c #545456",
"!  c #5A5250",
"~  c #565658",
"^  c #5A5A5C",
"/  c #5B5B5D",
"(  c #5D595C",
")  c #5D5D5F",
"_  c #6C4D41",
"`  c #62504A",
"'  c #715649",
"]  c #745749",
"[  c #72584E",
"{  c #74594F",
"}  c #635B59",
"|  c #646450",
" . c #766B56",
".. c #726758",
"X. c #7D665A",
"o. c #7B715E",
"O. c #635F61",
"+. c #616163",
"@. c #636365",
"#. c #646264",
"$. c #646466",
"%. c #676769",
"&. c #69696B",
"*. c #6B6B6D",
"=. c #6D6D6F",
"-. c #717173",
";. c #727274",
":. c #747476",
">. c #757577",
",. c #767678",
"<. c #78787A",
"1. c #79797B",
"2. c #7A7A7C",
"3. c #A2783C",
"4. c #875F4B",
"5. c #8E624C",
"6. c #997B4B",
"7. c #936D59",
"8. c #A77E5D",
"9. c #867465",
"0. c #897768",
"q. c #8C7A6B",
"w. c #A07C63",
"e. c #7F8124",
"r. c #AA913D",
"t. c #828451",
"y. c #A2814F",
"u. c #888A60",
"i. c #8D8E6B",
"p. c #A68266",
"a. c #A59663",
"s. c #C6A740",
"d. c #7E7E80",
"f. c #818184",
"g. c #828284",
"h. c #838385",
"j. c #858584",
"k. c #848486",
"l. c #858587",
"z. c #868688",
"x. c #88888A",
"c. c #8D8D8F",
"v. c #929388",
"b. c #8E8E90",
"n. c #909092",
"m. c #949496",
"M. c #9D9D95",
"N. c #979799",
"B. c #98989A",
"V. c #98989C",
"C. c #9B9B9D",
"Z. c #9C9C9E",
"A. c #ABA594",
"S. c #9D9DA1",
"D. c #9CA8AD",
"F. c #A2A2A4",
"G. c #A2A2A5",
"H. c #AAA5A4",
"J. c #A4A4A8",
"K. c #A7A7AA",
"L. c #A8A8AC",
"P. c #AAAAAC",
"I. c #AAAAAE",
"U. c #B4ACA9",
"Y. c #B3B0A9",
"T. c #AEAEB1",
"R. c #B1B1B5",
"E. c #B4B4B7",
"W. c #B6B6BA",
"Q. c #B7B7BB",
"!. c #B9B9BC",
"~. c #C1C1C3",
"^. c #C4C3C3",
"/. c #C3C3C5",
"(. c #C8C8CB",
"). c #D2D2D6",
"_. c #DCDCDF",
"`. c #E1E1E2",
"'. c #E4E4E6",
"]. c #F3F3F3",
"[. c gray99",
"{. c white",
/* pixels */
"u u u u u u u u u u u u u u u u u u u u u u u u u u u u u u u u u u u u u u u u u u u u u u u u u u u u u u u u u u u u u u u u ",
"u u u u u u u u u u u u u u u u u u u u u u u u u u u u u u u u u u u u u u u u u u u u u u u u u u u u u u u u u u u u u u u u ",
"u u u u u u u u u u u u u u u u u u u u u u u u u u u u u u u u u u u u u u u u u u u u u u u u u u u u u u u u u u u u u u u u ",
"u u u u u u u u u u u u u u u u u u u u u u u u u u u u u u u u u u u u u u u u u u u u u u u u u u u u u u u u u u u u u u u u ",
"u u u u u u u u u u u u u u u u u u u u u u u u u u u u u u u u u u u u u u u u u u u u u u u u u u u u u u u u u u u u u u u u ",
"u u u u u u u u u u u u u u u u u u u u u u u u u u u u u u u u u u u u u u u u u u u u u u u u u u u u u u u u u u u u u u u u ",
"u u u u u u u u u u u u u u u u u u u u u u u u u u u u u u u u u u u u u u u u u u u u u u u u u u u u u u u u u u u u u u u u ",
"u u u u u u u u u u u u u u u u u u u u u u u u u u u u u u u u u u u u u u u u u u u u u u u u u u u u u u u u u u u u u u u u ",
"u u u u u u u u u u u u u u u u u u u u u u u u u u u u u u u u u u u u u u u u u u u u u u u u u u u u u u u u u u u u u u u u ",
"u u u u u u u u u u u u u u u u u u u u u u u u u u u u u u u u u u u u u u u u u u u u u u u u u u u u u u u u u u u u u u u u ",
"u u u u u u u u u u u u u u e.e.u u u u u u u u u u t t a a a a a a a a a a u u u u u u u u u u u u u u u u u u u u u u u u u u ",
"u u u u u u u u u u u u u u e.e.u u u u u u u u u u t t a a a a a a a a a a u u u u u u u u u u u u u u u u u u u u u u u u u u ",
"u u u u u u u u u u u u Z Z Z Z u u u u e.e.A A # # F F Q Q <.<.<.2.$.$.Q ~ o o l l u u u u u u u u u u u u u u u u u u u u u u ",
"u u u u u u u u u u u u Z Z Z Z u i u u e.e.A A # # F F W W <.<.2.<.$.$.~ ~ o & l l u u u u u u u u u u u u u u u u u u u u u u ",
"u u u u u u Z Z u u u u Z Z r r i i Z Z i C v v ^ ^ k.f.c.c.F.F.F.F.V.C.j.k.,.<.U U j j u u u u u u u u u u u u u u u u u u u u ",
"u u u u u u Z Z u u u u Z Z r r i i Z Z C C v v ) ) f.f.b.b.F.F.F.F.Z.Z.k.k.<.<.U U j j u u u u u u u u u u u u u u u u u u u u ",
"u u u u u u u u t.t.u u 9 9 u u u u e.e.p p Q Q x.x.V.V.D.D.W.W.!.W.R.R.B.B.n.n.<.<.U U g g i i u u u u u u u u u u u u u u u u ",
"u u u u u u u u t.t.u u 9 9 u u u u e.e.p p Q Q x.x.V.V.D.D.W.W.W.W.R.R.B.B.n.n.<.<.U I g x i i u u u u u u u u u u u u u u u u ",
"u u u u u u u u Z Z Z Z s.s.s.s.t.t.: : ~ ~ i.i.m.m.S.S.W.W.W.W.!.W.W.!.W.W.N.N.B.B.,.,.U U k k u u u u u u u u u u u u u u u u ",
"u u u u u u u u Z Z Z Z s.s.s.s.t.t.: : ~ ~ i.i.m.m.S.S.W.W.W.W.W.!.W.W.W.W.N.N.B.B.,.,.U U k k u u u u u u u u u u u u u u u u ",
"u u u u u u u u i i s.s.3.3.6.6.r.r.F F <.<.c.c.S.S.S.S.R.R.E.E.!.Q.Q.Q.T.T.m.N.N.N.g.g.$.$.x c u u u u u u u u u u u u u u u u ",
"u u u u u u u u i i s.s.3.3.6.6.r.r.F F <.<.c.c.S.S.S.S.R.R.E.R.W.Q.Q.Q.T.T.B.N.N.N.g.g.$.$.c c u u u u u u u u u u u u u u u u ",
"u u u u u u i i u.u.e e s.s.s.s.p p R R =.=.U U $.$.q.q.b.c.D.D.Z.Z.D.D.g.g.:.,.Q Q U U *.*.= = u u u u u u u u u u u u u u u u ",
"u u u u u u i i u.u.e e s.s.s.s.p p R R =.=.U U @.@.q.q.c.c.D.D.Z.Z.D.D.g.g.,.,.Q Q U U *.%.F F u u u u u u u u u u u u u u u u ",
"u u u u i i i i B.B.u.u.y y e e x x R R * * 2.2.J J J F / / / / / / ( ( ^ ^ * * ;.;.~ ~ F F = = i e.e.e.u u i i u u u u u e.u e.",
"u u u u i i i i B.B.u.u.y y e e x x R R * * 2.2.J J J J / / / / ( ^ ( ( ^ ^ * * ;.;.~ ~ F F F F e.i e.e.u i i r u u u r e.u e.u ",
"e.e.Z Z i i i i I.I.`.`.t.t.t t Q Q * * ~ ~ / / ,.;.c.c.F.F.P.I.K.K.I.I.B.B.f.f.+.+.%.%.I I +.+.X X e.e.e.e.e.i u u A e.e.r u u ",
"e.e.Z Z i i i i I.I.`.`.t.t.t t Q Q * * ~ ~ / / ;.;.c.c.F.F.P.I.K.K.I.I.B.B.h.f.+.+.%.%.I I +.+.X X e.e.e.i i e.u u t.e.e.r.u u ",
"e.e.Z Z Z Z i i I.I.{.{.!.!.t t P P & & ) ) @.@.. . + + 1 1 3 3 3 3 3 3 < < O O 1 1 z.z.U I R R X X e e e.u r r e.u e.e.r r r r ",
"e.e.Z Z Z Z i i I.I.{.{.!.!.t t P P & & ) ) @.@.. . + + 1 1 3 3 3 3 3 3 < < O O - $ z.z.U I R R X X r r u e.r r u e.u e.r r u u ",
"r r Z Z Z Z i i M.M.'.'._._.j.j.@ @ X X ~ ~ j.k.@.@.X X + + + +     < < < < 2 2 d.d.-.-.P P X X . . e.e.r r r r e.u D.D.D.D.u u ",
"r r Z Z Z Z i i M.M.'.'._._.j.j.@ @ X X ~ ~ k.k.@.@.X X + + + +     < < < < 2 2 d.d.-.-.P P X X . . e.i r r r r u e.D.D.D.F.u u ",
"u u r r r r u u D D ~.~.[.[.A.A.B B G G G G E E :.;.c.b.G.G.L.L.P.K.I.I.V.Z.h.j.$.$.P L F J o o Z Z U.Y.Y.Y.i u Z Z y.y.D.D.u u ",
"u u r r r r u u D D ~.~.[.[.A.A.B B G G G G E E :.;.c.b.G.F.L.L.K.K.I.I.Z.Z.j.j.$.%.P L G G o & Z Z Y.Y.Y.Y.i u Z Z y.y.D.D.u u ",
"u u u u u u u u u u i.i.].].^.^.a.a.$ $ ~ ~ U U m m X.X.q.0.q.q.q.q.q.q.9.9.{ { < < %.%.U U z z Y.Y.y.y.y.y.Y.Y.u u e e e e u u ",
"u u u u u u u u u u i.i.].].^.^.a.a.$ = ~ ~ U U m m X.X.0.0.q.q.q.q.q.q.9.9.{ { < + %.%.U U z z Y.Y.y.y.y.y.Y.Y.u u e e e e u u ",
"u u u u u u u u u u t.t././.(.(.=.=.:.>.2 2 F F + < > > _ _ [ [ ] ] ] ] N N : : 1 1 J J W W R R w w Y.Y.Y.Y.e e u u u u u u u u ",
"u u u u u u u u u u t.t././.(.(.=.=.>.>.2 2 F F + < > > _ _ [ [ ] ] ] ] N N : : 1 1 J J W W R R w w Y.Y.Y.Y.e e u u u u u u u u ",
"u u u u u u u u u u i i v.v.).).R.R. . .o.o.f.f.P I 3 3 } } W W ! ! } } ! ! b b ,.,.Q.Q.F.F.;.;.X X e e e e i i u u u u u u u u ",
"u u u u u u u u u u i i v.v.).).R.R. . .o.o.f.f.P I 3 3 } } W W ! ! } } ! ! b b ,.,.Q.Q.F.F.;.-.X X e e e e i i u u u u u u u u ",
"u u u u u u u u u u u u 6 6 I.I.(.(.i i 0 0 a , %.%.b.n.T.T.n.n.n.n.K.K.T.T.d.d.#.#.%.%.O.O.P L t t u u u u u u u u u u u u u u ",
"u u u u u u u u u u u u 6 6 I.I.(.(.u u 0 0 , , %.%.n.n.T.T.b.b.n.n.K.F.T.T.d.d.#.#.%.%.O.O.P L t t u u u u u u u u u u u u u u ",
"u u u u u u u u i u q q 8 8 9 9 7 7 ; ; 7 7     O.O.z.j.d.d./ / O.@.$.&.z.z.2.2.K K U.U.H.H.*.*.X X u u u u u u u u u u u u u u ",
"u u u u u u u u i i q 4 8 8 9 9 7 7 ; ; 7 7     O.O.l.k.d.d./ / O.} &.$.z.z.2.2.K K U.U.H.H.*.*.X X u u u u u u u u u u u u u u ",
"u u u u u u u u u u u u 4 4 4 4 h h V V V V n n E E J J J J O.O.;.;.R R J J J J s s 8.8.w.w.....x g u u u u u u u u u u u u u u ",
"u u u u u u u u u u u u 4 4 4 4 h h V t V V n n E W J J J J O.+.;.;.R R J J J J s s 8.8.w.w.....g g i i u u u u u u u u u u u u ",
"u u u u u u u u u u u u u u u u i u e.e.% % @.O.L.L.z.z./ / D.D.I.I.;.;.*.*.V.V.T T 5.5.4.4.f f u u u u u u u u u u u u u u u u ",
"u u u u u u u u u u u u u u u u u u e.e.% 1 #.#.L.L.z.j./ / D.D.I.I.;.;.*.*.V.V.T T 5.5.4.4.f f u u u u u u u u u u u u u u u u ",
"u u u u u u u u u u u u u u u u u u t.t.a a ,.,.M.M.$ $ Q W c.b.L.L.<.<.= = V.Z.&.&.5 5 5 5 y y u u u u u u u u u u u u u u u u ",
"u u u u u u u u u u u u u u u u u u t.t.a a ,.,.M.M.$ $ Q Q c.b.L.K.<.<.= = Z.Z.&.&.5 5 5 5 y y u u u u u u u u u u u u u u u u ",
"u u u u u u u u u u u u u u u u u u r r r r | | U U k.f.i.i.E E / ^ Y Y [ [ ` ` M M u u u u u u u u u u u u u u u u u u u u u u ",
"u u u u u u u u u u u u u u u u u u r r r r | | U U f.f.i.i.E E ^ ^ Y Y [ [ ` ` M M u u u u u u u u u u u u u u u u u u u u u u ",
"u u u u u u u u u u u u u u u u u u u u u u y y d d 7.7.p.p.' ' y y h h d d h h u u u u u u u u u u u u u u u u u u u u u u u u ",
"u u u u u u u u u u u u u u u u u u u u u u y y d d 7.7.p.p.' ' y y h h d d h h u u u u u u u u u u u u u u u u u u u u u u u u ",
"u u u u u u u u u u u u u u u u u u u u u u u u 6 6 6.6.6.6.S S u u u i u u u u u u u u u u u u u u u u u u u u u u u u u u u u ",
"u u u u u u u u u u u u u u u u u u u u u u u u 6 6 6.6.6.6.S S u u i i u u u u u u u u u u u u u u u u u u u u u u u u u u u u ",
"u u u u u u u u u u u u u u u u u u u u u u u u u u u u u u u u u u u u u u u u u u u u u u u u u u u u u u u u u u u u u u u u ",
"u u u u u u u u u u u u u u u u u u u u u u u u u u u u u u u u u u u u u u u u u u u u u u u u u u u u u u u u u u u u u u u u ",
"u u u u u u u u u u u u u u u u u u u u u u u u u u u u u u u u u u u u u u u u u u u u u u u u u u u u u u u u u u u u u u u u ",
"u u u u u u u u u u u u u u u u u u u u u u u u u u u u u u u u u u u u u u u u u u u u u u u u u u u u u u u u u u u u u u u u ",
"u u u u u u u u u u u u u u u u u u u u u u u u u u u u u u u u u u u u u u u u u u u u u u u u u u u u u u u u u u u u u u u u ",
"u u u u u u u u u u u u u u u u u u u u u u u u u u u u u u u u u u u u u u u u u u u u u u u u u u u u u u u u u u u u u u u u ",
"u u u u u u u u u u u u u u u u u u u u u u u u u u u u u u u u u u u u u u u u u u u u u u u u u u u u u u u u u u u u u u u u ",
"u u u u u u u u u u u u u u u u u u u u u u u u u u u u u u u u u u u u u u u u u u u u u u u u u u u u u u u u u u u u u u u u "
};
