/* XPM */
static char *result[] = {
/* columns rows colors chars-per-pixel */
"32 32 233 2 ",
"   c #3F1B2A",
".  c #401A29",
"X  c #401B29",
"o  c #401A2A",
"O  c #401B2A",
"+  c #401C28",
"@  c #451C2D",
"#  c #461C2D",
"$  c #471C2D",
"%  c #4C1C2F",
"&  c #511E33",
"*  c #511F33",
"=  c #551F35",
"-  c #462920",
";  c #452A20",
":  c #462A21",
">  c #4D242D",
",  c #4F292F",
"<  c #523125",
"1  c #543625",
"2  c #573528",
"3  c #5B3828",
"4  c #5F392A",
"5  c #582037",
"6  c #5C253B",
"7  c #5F2B3A",
"8  c #60233B",
"9  c #63223C",
"0  c #62233C",
"q  c #67233E",
"w  c #63243D",
"e  c #66243F",
"r  c #69233F",
"t  c #653634",
"y  c #6A3737",
"u  c #673835",
"i  c #6B412F",
"p  c #6C4B2D",
"a  c #744932",
"s  c #7B463A",
"d  c #6B2542",
"f  c #6F2543",
"g  c #652B42",
"h  c #6F2945",
"j  c #712544",
"k  c #762747",
"l  c #782648",
"z  c #782748",
"x  c #792748",
"c  c #732E4A",
"v  c #7D294B",
"b  c #7E2A4C",
"n  c #7F2E4F",
"m  c #7B314F",
"M  c #7D3B56",
"N  c #7F3D57",
"B  c #7A5E40",
"V  c #8C3733",
"C  c #C3183D",
"Z  c #874735",
"A  c #814A3D",
"S  c #824B3C",
"D  c #824C3C",
"F  c #835637",
"G  c #845139",
"H  c #8B5438",
"J  c #8A543F",
"K  c #8B653B",
"L  c #802C4E",
"P  c #842E51",
"I  c #882C51",
"U  c #8B2D53",
"Y  c #8F2F56",
"T  c #902E55",
"R  c #902F56",
"E  c #922F57",
"W  c #853756",
"Q  c #863757",
"!  c #883053",
"~  c #883154",
"^  c #8B3256",
"/  c #8D3055",
"(  c #8C3357",
")  c #823856",
"_  c #853857",
"`  c #883A59",
"'  c #8B395A",
"]  c #8E3E5E",
"[  c #973059",
"{  c #90365A",
"}  c #90375B",
"|  c #98315A",
" . c #99315B",
".. c #9B325C",
"X. c #9E335E",
"o. c #923A5E",
"O. c #94385D",
"+. c #983C61",
"@. c #9A3C62",
"#. c #9B3D63",
"$. c #A13661",
"%. c #A83F69",
"&. c #C42B44",
"*. c #875D41",
"=. c #965A42",
"-. c #905F46",
";. c #9C5F44",
":. c #814055",
">. c #8A405E",
",. c #B64042",
"<. c #A05C48",
"1. c #BF5247",
"2. c #8B6F4B",
"3. c #9D6143",
"4. c #976C46",
"5. c #9A7E54",
"6. c #A06344",
"7. c #A66448",
"8. c #A0634E",
"9. c #AA6948",
"0. c #AA6A48",
"q. c #AC6E49",
"w. c #B96E4B",
"e. c #A4704A",
"r. c #AF734B",
"t. c #A77B4C",
"y. c #B0764B",
"u. c #B1784C",
"i. c #B37B4D",
"p. c #B47D4E",
"a. c #A97050",
"s. c #A77855",
"d. c #8E4260",
"f. c #8E4562",
"g. c #814960",
"h. c #984767",
"j. c #934867",
"k. c #944968",
"l. c #954B69",
"z. c #9E5A75",
"x. c #A34269",
"c. c #AA436D",
"v. c #AC436D",
"b. c #A8446D",
"n. c #AD456F",
"m. c #A74A6F",
"M. c #AF4A72",
"N. c #AE4A73",
"B. c #B24973",
"V. c #B34B75",
"C. c #B74F79",
"Z. c #A35D79",
"A. c #AE5C7E",
"S. c #B9517B",
"D. c #C15548",
"F. c #C15E4C",
"G. c #C0644B",
"H. c #C1765C",
"J. c #CA775D",
"K. c #9C8056",
"L. c #B7824F",
"P. c #B6844F",
"I. c #A3845E",
"U. c #B58550",
"Y. c #BF8050",
"T. c #BC8C52",
"R. c #BA8F55",
"E. c #BD8E55",
"W. c #BF9254",
"Q. c #AD966A",
"!. c #B09462",
"~. c #BA9764",
"^. c #B69A66",
"/. c #BDA16A",
"(. c #BFA36B",
"). c #B6A173",
"_. c #C19658",
"`. c #C39A5B",
"'. c #CC8163",
"]. c #C59F60",
"[. c #C8A365",
"{. c #CAA769",
"}. c #C6AA6F",
"|. c #CBA96E",
" X c #CDAE6F",
".X c #CCAB70",
"XX c #C8AC70",
"oX c #CAAE72",
"OX c #CEB071",
"+X c #CEB073",
"@X c #CFB173",
"#X c #CFB273",
"$X c #CEB274",
"%X c #CFB176",
"&X c #D0B374",
"*X c #D1B576",
"=X c #D1B676",
"-X c #D2B677",
";X c #D4BA76",
":X c #D7C07D",
">X c #D7C17E",
",X c #BD5780",
"<X c #BE5780",
"1X c #BE5781",
"2X c #B85E83",
"3X c #A96581",
"4X c #AB6884",
"5X c #AE6E88",
"6X c #B16986",
"7X c #B26886",
"8X c #B46B88",
"9X c #B2768E",
"0X c #B8708D",
"qX c #C15E86",
"wX c #C45D86",
"eX c #C6648B",
"rX c #C5658C",
"tX c #C8618A",
"yX c #CC668F",
"uX c #BB8299",
"iX c #D9C580",
"pX c #DAC680",
"aX c #DBC783",
"sX c #DBC983",
"dX c #DECD87",
"fX c #DFCF88",
"gX c #E0D28A",
"hX c #E1D38B",
"jX c #E2D58E",
"kX c #E4D792",
"lX c #EAD8A1",
"zX c #FEF9C4",
"xX c None",
/* pixels */
"xXxXxXxXxXxXxXxXxXxXO j x x x x xXxXxXxXxXxXxXxXxXxXxXxXxXxXxXxX",
"xXxXxXxXxXxXxXxXxXxX@ k v b b b xXxXxXxXxXxXxXxXxXxXxXxXxXxXxXxX",
"xXxXxXxXxXxXxXxXO w X.V.S.yXyXyXx x x x z xXxXxXxXxXxXxXxXxXxXxX",
"xXxXxXxXxXxXxXxX* d [ b.N.tXeXrX_ _ _ _ W xXxXxXxXxXxXxXxXxXxXxX",
"xXxXxXxXxXxXo O X.T x x L C.A.3XuXuXuXuX9Xx x x x x x x z xXxXxX",
"xXxXxXxXxXxXo O E I x Q ] 2X7X5X6X6X6X0X8Xo.o.o.o.} ( ( ^ xXxXxX",
"xXxXxXxXxXxXo O x x x Z.4XuXuXuXX.X.X.V.S.yXyXyXyXwXC.C.M.x xXxX",
"xXxXxXxXxXxX5 5 d.d.d.j.l.z.z.z.%.v.B.<X,Xm.h.f.f.>.) +.@.O.! xX",
"xXxXxXxXxXxXl x 3X3X3Xn x x x x C.1XyXyXqXx = O O O O j L C.{ x ",
"xXxXxXxXxXX N k.d.d.d./ Y #.#.#.O.' M M :.8.-.*.s t O = 8 O.h 5 ",
"xXxXxXxXxXO g.3Xx x x  .$.C.C.C.x 9 O O , W.W.W.9.S O O $ x = O ",
"xXxXxX  # q m ` x ~ x.n.c.( c g a.s.I.Q.).lXlXlX%X~.4.J A & % xX",
"xXxXxX. $ x x x x { C.C.M.x = O W.].*XfXkXzXzXzXhX;XW.q.;.O xXxX",
"xXxXo r f x U [ [ R P 6 7 <.e.t.pXsXdXgXkXzXzXzXhXiX XE.P.=.xXxX",
"xXxXO j x x T X.X.T x $ > 9.L.W.hXhXhXhXkXzXzXzXhXaX*X_.T.9.xXxX",
"O 0 | ......e @ @ y 7.U.R.+X@X#X-X>XhXhXhXjXjXjX-X=X*X&X|.9.xXxX",
"O w X.X.X.X.w O O u 9.T._.*X*X*X*X:XhXhXhXhXhXhX*X*X*X*X.X9.xXxX",
"O O O O O O S 9.W.W.W.OX*X*X*X*X*X*X*X*X*X*X*X*X*X*X*X*XOXW.K p ",
". . . . O + D 9.W.W.W.OX*X*X}.(.*X*X*X*X*X*X*X*X*XoX(.$XOXW.K p ",
"xXxXxXxXxX: G 9.W.W.W.OX*X*XB : *X*X*X*X*X*X*X*X*XK.: (.OXW.K p ",
"xXxXxXxXxX: G 9.W.W.W.OX*X*XB : *X*X*X*X*X*X*X*X*XK.: (.OXW.K p ",
"xXxXxXxXxX: G 9.W.W.W.OX*X*XB : *X*X*X*X*X*X*X*X*XK.: (.OXW.K p ",
"xXxXxXxXxX: G 9.W.Y.G.J.'.*X5.B *X*X*X*XoXK./.*X*X!.B H.J.G.H p ",
"xXxXxXxXxX: G 9.W.G.C C &.*X*X*X*X*X*X*X(.: K.*X*X*X*X&.C C V p ",
"xXxXxXxXxX: G 9.p.w.D.D.F.[. X*X*X*X*X*XXX2.^.*X*X X[.F.1.,.Z p ",
"xXxXxXxXxX: G 9.9.u.W.W.W.W.{.*X*X*X*X*X*X*X*X*X*X{.W.W.T.9.F p ",
"xXxXxXxXxX: G 9.9.q.u.u.i.W.`.].].].].].].].].].].`.W.i.y.9.a 1 ",
"xXxXxXxXxX: G 9.9.9.9.9.q.W.W.W.W.W.W.W.W.W.W.W.W.W.W.q.9.9.i : ",
"xXxXxXxXxXxX3 4 9.9.9.9.0.r.r.r.r.r.r.r.r.r.r.r.r.r.r.0.6.4 2 xX",
"xXxXxXxXxXxX; : 9.9.9.9.9.9.9.9.9.9.9.9.9.9.9.9.9.9.9.9.3.: xXxX",
"xXxXxXxXxXxXxXxX< < < < < < < < < < < < < < < < < < < < < xXxXxX",
"xXxXxXxXxXxXxXxX: : : : : : : : : : : : : : : : : : : : - xXxXxX"
};
