/* XPM */
static char *wall[] = {
/* columns rows colors chars-per-pixel */
"64 64 57 1 ",
"  c #4D321E",
". c #4F3922",
"X c #513621",
"o c #553C25",
"O c #593E24",
"+ c #583F28",
"@ c #564127",
"# c #594127",
"$ c #564128",
"% c #5C442A",
"& c #5E492D",
"* c #5C4732",
"= c #5D4A33",
"- c #61462D",
"; c #624A2E",
": c #644D31",
"> c #684E33",
", c #675133",
"< c #6B5335",
"1 c #64513B",
"2 c #6D5538",
"3 c #6F593A",
"4 c #705637",
"5 c #725837",
"6 c #705638",
"7 c #745B3C",
"8 c #795F3E",
"9 c #7A603F",
"0 c #665544",
"q c #695641",
"w c #675846",
"e c #6B5941",
"r c #6C5C49",
"t c #755E41",
"y c #785F40",
"u c #6E604E",
"i c #756141",
"p c #7C6341",
"a c #74634D",
"s c #7B6649",
"d c #746553",
"f c #766857",
"g c #796B5B",
"h c #7E705F",
"j c #806744",
"k c #826946",
"l c #866D49",
"z c #896F4B",
"x c #87704A",
"c c #8A714D",
"v c #8E7651",
"b c #8F7852",
"n c #907955",
"m c #937D59",
"M c #837767",
"N c #86796A",
"B c #95805B",
/* pixels */
"rruurr==::,,222255553333333399ii99iiiiii9977<<2211,,,,,,aauudd11",
"rruurr==::,,222255553333333399ii99iiiiii9977<<2211,,,,,,aauudd11",
"MMNNffssbbnnnnnnnnnnmmmmmmBBBBBBmmmmmmbbnnnnbbbbmmbbvvllaaNNMMww",
"MMNNffssbbnnnnnnnnnnmmmmmmBBBBBBmmmmmmbbnnnnbbbbmmbbvvllaaNNMMww",
"ffeeiillllzzccbbvvbbbbbbvvvvvvvvvvvvvvvvvvccxxllxxllllll9911gg00",
"ffeeiillllzzccbbvvbbbbbbvvvvvvvvvvvvvvvvvvccxxllxxllllll9911gg00",
"119977ppccbbccbbbbvvbbbbvvbbmmvvbbvvvvvvvvvvccxxllllllss<<ss11==",
"119977ppccbbccbbbbvvbbbbvvbbmmvvbbvvvvvvvvvvccxxllllllss<<ss11==",
"99llxx55::::::::::;;>>>>>><<<<>>,,,,,,;;;;;;;;;;>>;;;;22llzzpp%%",
"99llxx55::::::::::;;>>>>>><<<<>>,,,,,,;;;;;;;;;;>>;;;;22llzzpp%%",
"llzzzz88oo%%;;OOXXoo####XX;;;;--;;&&OO--##OOOOOO##%%##,,xxxxll;;",
"llzzzz88oo%%;;OOXXoo####XX;;;;--;;&&OO--##OOOOOO##%%##,,xxxxll;;",
"kkllxx88%%<<7788;;##;;;;OO>>44<<44,,@@;;;;--OO7744::%%,,ccllxx;;",
"kkllxx88%%<<7788;;##;;;;OO>>44<<44,,@@;;;;--OO7744::%%,,ccllxx;;",
"kkkkll88##<<558899;;;;>>OO5588889955%%44<<##999977;;%%,,ccxxxx::",
"kkkkll88##<<558899;;;;>>OO5588889955%%44<<##999977;;%%,,ccxxxx::",
"ppkkll88  %%449999kk,,,,;;8888888877;;>>;;llpp9955;;..<<ccxxxx;;",
"ppkkll88  %%449999kk,,,,;;8888888877;;>>;;llpp9955;;..<<ccxxxx;;",
"ppkkkk77@@  %%339999ll<<%%7788888877;;;;kkkkpp77::XX  ,,ccxxxx::",
"ppkkkk77@@  %%339999ll<<%%7788888877;;;;kkkkpp77::XX  ,,ccxxxx::",
"pppppp77##@@oo%%77ppppll>>7788yy8855::zzzzkk99<<XX..##<<xxxxxx;;",
"pppppp77##@@oo%%77ppppll>>7788yy8855::zzzzkk99<<XX..##<<xxxxxx;;",
"jjjjkk88%%&&@@..;;77ppkkzz7766tt77>>vvzzzzkk<<oo  ;;;;<<xxxxxx&&",
"jjjjkk88%%&&@@..;;77ppkkzz7766tt77>>vvzzzzkk<<oo  ;;;;<<xxxxxx&&",
"99kkpp88%%,,&&%%##;;99ppkkxx22<<,,zzvvzzll55oo@@@@,,,,22xxllll;;",
"99kkpp88%%,,&&%%##;;99ppkkxx22<<,,zzvvzzll55oo@@@@,,,,22xxllll;;",
"ppjjpp77%%,,&&,,;;%%;;99jjkkkk>>vvzzzzkk55oo##;;$$,,,,,,llllll;;",
"ppjjpp77%%,,&&,,;;%%;;99jjkkkk>>vvzzzzkk55oo##;;$$,,,,,,llllll;;",
"99ppjj88%%,,;;,,33,,##;;8888ppvvcczzkk66oo@@,,33&&,,,,,,llllll;;",
"99ppjj88%%,,;;,,33,,##;;8888ppvvcczzkk66oo@@,,33&&,,,,,,llllll;;",
"99pppp99%%,,,,,,7777,,%%;;22ccvvzzkk88++%%,,7733&&<<,,,,llllkk::",
"99pppp99%%,,,,,,7777,,%%;;22ccvvzzkk88++%%,,7733&&<<,,,,llllkk::",
"99pppp77&&,,::22yy7755::::vvzzzzkk77++++22887733&&,,,,<<llkkkk;;",
"99pppp77&&,,::22yy7755::::vvzzzzkk77++++22887733&&,,,,<<llkkkk;;",
"99kkppii&&,,::77777755::jjzzllpp77%%66>>22777722&&<<==22llssjj--",
"99kkppii&&,,::77777755::jjzzllpp77%%66>>22777722&&<<==22llssjj--",
"9999pp99&&,,;;<<7755::kkllllpp77++55jjzz222277<<&&,,,,,,lljjjj;;",
"9999pp99&&,,;;<<7755::kkllllpp77++55jjzz222277<<&&,,,,,,lljjjj;;",
"9999ii99&&,,;;::,,::kkllssyy22%%;;88yysszz22::,,%%<<,,,,kkpppp%%",
"9999ii99&&,,;;::,,::kkllssyy22%%;;88yysszz22::,,%%<<,,,,kkpppp%%",
"99999999**<<%%::--jjkkpppp77%%%%++::77ppssll11::%%,,,,<<kkppjj;;",
"99999999**<<%%::--jjkkpppp77%%%%++::77ppssll11::%%,,,,<<kkppjj;;",
"99999977==22%%++ddssppyy77++--55::OO;;77ppjjzz<<%%,,,,<<kk99pp%%",
"99999977==22%%++ddssppyy77++--55::OO;;77ppjjzz<<%%,,,,<<kk99pp%%",
"77779977**>>;;77jjyy7722%%;;77pp77>>OO;;77yyppll,,;;;;,,jjpp99;;",
"77779977**>>;;77jjyy7722%%;;77pp77>>OO;;77yyppll,,;;;;,,jjpp99;;",
"33999933==++ttyyyy7722++$$55pppppp77%%++;;7788yypp::;;,,kk9999&&",
"33999933==++ttyyyy7722++$$55pppppp77%%++;;7788yypp::;;,,kk9999&&",
"33773355@@77773377>>++::%%7788889988%%--++%%33ttppss--::pp8888%%",
"33773355@@77773377>>++::%%7788889988%%--++%%33ttppss--::pp8888%%",
"44339977;;33,,<<::OO%%,,;;7788888877OO<<;;++**77777788::887788%%",
"44339977;;33,,<<::OO%%,,;;7788888877OO<<;;++**77777788::887788%%",
"44<<5555%%,,,,;;oo%%<<66%%5577777733OO<<,,;;OO++777777--995577%%",
"44<<5555%%,,,,;;oo%%<<66%%5577777733OO<<,,;;OO++777777--995577%%",
"<<<<5555oo%%##XXoo--;;::oo%%--------XX%%--%%oo  %%;;%%--7777<<@@",
"<<<<5555oo%%##XXoo--;;::oo%%--------XX%%--%%oo  %%;;%%--7777<<@@",
"::>>>><<<<<<55<<5555>>66<<552255777777777777888877tt7766<<<<;;oo",
"::>>>><<<<<<55<<5555>>66<<552255777777777777888877tt7766<<<<;;oo",
"gg::::pp9999999988ppppyyyy88pppp9999pp99ppppyyyyyyppyypp>>;;dd00",
"gg::::pp9999999988ppppyyyy88pppp9999pp99ppppyyyyyyppyypp>>;;dd00",
"hhggqq77888888888888pp88yy8888888888999988yyyyppyypp88yy77ddMM11",
"hhggqq77888888888888pp88yy8888888888999988yyyyppyypp88yy77ddMM11",
"ddffgg;;44<<,,55<<55<<<<445555<<5555<<55<<55<<44<<5544,,rrggff==",
"ddffgg;;44<<,,55<<55<<<<445555<<5555<<55<<55<<44<<5544,,rrggff=="
};
