/* XPM */
static char *result[] = {
/* columns rows colors chars-per-pixel */
"32 32 8 1 ",
"  c #1C1A23",
". c #2C2C2C",
"X c #403E45",
"o c #5E5C66",
"O c #756A6A",
"+ c #847A76",
"@ c #8A8883",
"# c None",
/* pixels */
"#                              #",
" +O.ooooooo.ooooooo.ooooooo.oOO ",
" +O.oOO+@+O.oO@+@+O.oOO+@+O.oOO ",
" O+.oO++O@+.o+O++@+.oO++O@+.oO+ ",
" +O.oo+OO+O.oo+OO+O.oo+OO+O.oo+ ",
" OO.ooo++OO.oooOoOO.ooo++OO.ooo ",
" X.......X.....X.X.X.....X..... ",
" OO+@+o.oOO++@O.oOO+@+o.oOO+@+o ",
" ooO+@O.oooO++O.oOoO+@O.oooO+@O ",
" ..X.......X...X.X.X.......X... ",
" +O.oOO+@+O.oO@+@+O.oOO+@+O.oOO ",
" @+.oO++O@+.o+O++@+.oO++O@+.oO+ ",
" +O.oo+OO+O.ooOO+@+.oo+OO+O.oo+ ",
" OO.oooOoOO.ooooOOO.oooOoOO.ooo ",
" X.X...X.X.X.....X.....X.X.X... ",
" OO++@O.oOO++Oo.oOO@+@O.oOO++@O ",
" OoO++O.oOoO+OO.oooO++O.oOoO++O ",
" X.X...X.X.X..X........X.X.X... ",
" +O.oO@+@+O.OOO+OOOXoO@+@+O.oO@ ",
" @+.o+O++@+.oO+@++O.o+O++@+.o+O ",
" +O.oo+OO+O.oo+OO+O.oo+OO+O.oo+ ",
" OO.oooOoOO.ooo++OO.oooOoOO.ooo ",
" X.X...X.X.X.....X.....X.X.X... ",
" OO++@O.oOO+@+o.oOO++@O.oOO++@O ",
" OoO++O.oOoO+@O.oooO++O.oOoO++O ",
" X.X...X.X.X.......X...X.X.X... ",
" +O.oO@+@+O.oOO+@+O.oO@+@+O.oO@ ",
" @+.o+O++@+.oO++O@+.o+O++@+.o+O ",
" +O.oo+OO+O.oo+OO+O.oo+OO+O.oo+ ",
" OO.OooOoOO.oOo++OO.OooOoOO.Ooo ",
" Oo.ooooOOo.oooooOo.ooooOOo.ooO ",
"#                              #"
};
